<svg xmlns="http://www.w3.org/2000/svg" xmlns:xlink="http://www.w3.org/1999/xlink" width="996" height="1051.24"><rect width="996" height="1051.24" rx="5" ry="5" class="a"/><svg y="0%" x="0%"><circle cx="20" cy="20" r="6" fill="#ff5f58"/><circle cx="40" cy="20" r="6" fill="#ffbd2e"/><circle cx="60" cy="20" r="6" fill="#18c132"/></svg><svg height="955.24" viewBox="0 0 92 95.524" width="920" x="33" xmlns="http://www.w3.org/2000/svg" xmlns:xlink="http://www.w3.org/1999/xlink" y="68"><style>@keyframes n{0%{transform:translateX(0)}5.4%{transform:translateX(-92px)}5.7%{transform:translateX(-184px)}6.1%{transform:translateX(-276px)}6.5%{transform:translateX(-368px)}6.9%{transform:translateX(-460px)}7.2%{transform:translateX(-552px)}7.6%{transform:translateX(-644px)}8%{transform:translateX(-736px)}8.3%{transform:translateX(-828px)}8.7%{transform:translateX(-920px)}9.1%{transform:translateX(-1012px)}9.5%{transform:translateX(-1104px)}9.8%{transform:translateX(-1196px)}10.2%{transform:translateX(-1288px)}10.6%{transform:translateX(-1380px)}11%{transform:translateX(-1472px)}11.3%{transform:translateX(-1564px)}11.7%{transform:translateX(-1656px)}12.1%{transform:translateX(-1748px)}12.5%{transform:translateX(-1840px)}12.8%{transform:translateX(-1932px)}13.2%{transform:translateX(-2024px)}13.6%{transform:translateX(-2116px)}14%{transform:translateX(-2208px)}14.3%{transform:translateX(-2300px)}14.7%{transform:translateX(-2392px)}15.1%{transform:translateX(-2484px)}15.4%{transform:translateX(-2576px)}15.8%{transform:translateX(-2668px)}16.2%{transform:translateX(-2760px)}16.6%{transform:translateX(-2852px)}16.9%{transform:translateX(-2944px)}17.3%{transform:translateX(-3036px)}17.7%{transform:translateX(-3128px)}18.1%{transform:translateX(-3220px)}18.4%{transform:translateX(-3312px)}18.8%{transform:translateX(-3404px)}19.2%{transform:translateX(-3496px)}19.6%{transform:translateX(-3588px)}22.9%{transform:translateX(-3680px)}23%{transform:translateX(-3772px)}24.8%{transform:translateX(-4140px)}28.6%{transform:translateX(-4232px)}32.3%{transform:translateX(-4324px)}36%{transform:translateX(-4416px)}39.8%{transform:translateX(-4508px)}43.5%{transform:translateX(-4600px)}47.3%{transform:translateX(-4692px)}51%{transform:translateX(-4784px)}54.7%{transform:translateX(-4876px)}58.5%{transform:translateX(-4968px)}to{transform:translateX(-5060px)}}.a{fill:#282d35}.f,.g,.h,.j,.k{fill:#b9c0cb;white-space:pre}.g,.h,.j,.k{fill:#a8cc8c}.h,.j,.k{fill:#e88388}.j,.k{fill:#b9c0cb;font-weight:700}.k{fill:#a8cc8c}</style><g font-family="Monaco,Consolas,Menlo,'Bitstream Vera Sans Mono','Powerline Symbols',monospace" font-size="1.67"><defs><symbol id="1"><text y="1.67" class="f">$</text></symbol><symbol id="2"><text y="1.67" class="f">$</text><text x="2.004" y="1.67" class="f">depsect</text></symbol><symbol id="3"><text y="1.67" class="f">$</text><text x="2.004" y="1.67" class="f">depsect</text><text x="10.02" y="1.67" class="f">--base</text></symbol><symbol id="4"><text y="1.67" class="f">$</text><text x="2.004" y="1.67" class="f">depsect</text><text x="10.02" y="1.67" class="f">--base</text><text x="17.034" y="1.67" class="f">main</text></symbol><symbol id="5"><text y="1.67" class="f">$</text><text x="2.004" y="1.67" class="f">depsect</text><text x="10.02" y="1.67" class="f">--base</text><text x="17.034" y="1.67" class="f">main</text><text x="22.044" y="1.67" class="f">--test</text></symbol><symbol id="6"><text y="1.67" class="f">$</text><text x="2.004" y="1.67" class="f">depsect</text><text x="10.02" y="1.67" class="f">--base</text><text x="17.034" y="1.67" class="f">main</text><text x="22.044" y="1.67" class="f">--test</text><text x="29.058" y="1.67" class="f">&quot;npm</text></symbol><symbol id="7"><text y="1.67" class="f">$</text><text x="2.004" y="1.67" class="f">depsect</text><text x="10.02" y="1.67" class="f">--base</text><text x="17.034" y="1.67" class="f">main</text><text x="22.044" y="1.67" class="f">--test</text><text x="29.058" y="1.67" class="f">&quot;npm</text><text x="34.068" y="1.67" class="f">test&quot;</text></symbol><symbol id="8"><text y="1.67" class="f">npm:</text><text x="5.01" y="1.67" class="f">7</text><text x="7.014" y="1.67" class="f">dependency</text><text x="18.036" y="1.67" class="f">update(s)</text><text x="28.056" y="1.67" class="f">between</text><text x="36.072" y="1.67" class="f">c5a2a72</text><text x="44.088" y="1.67" class="f">and</text><text x="48.096" y="1.67" class="f">8d5ac71</text></symbol><symbol id="9"><text x="2.004" y="1.67" class="f">chalk</text><text x="9.018" y="1.67" class="f">4.1.2</text><text x="15.03" y="1.67" class="f">→</text><text x="17.034" y="1.67" class="f">6.0.0</text></symbol><symbol id="10"><text x="2.004" y="1.67" class="f">date-fns</text><text x="12.024" y="1.67" class="f">2.30.0</text><text x="19.038" y="1.67" class="f">→</text><text x="21.042" y="1.67" class="f">4.4.0</text></symbol><symbol id="11"><text x="2.004" y="1.67" class="f">dotenv</text><text x="10.02" y="1.67" class="f">16.3.1</text><text x="17.034" y="1.67" class="f">→</text><text x="19.038" y="1.67" class="f">16.6.1</text></symbol><symbol id="12"><text x="2.004" y="1.67" class="f">lodash</text><text x="10.02" y="1.67" class="f">4.17.20</text><text x="18.036" y="1.67" class="f">→</text><text x="20.04" y="1.67" class="f">4.18.1</text></symbol><symbol id="13"><text x="2.004" y="1.67" class="f">ms</text><text x="6.012" y="1.67" class="f">2.1.2</text><text x="12.024" y="1.67" class="f">→</text><text x="14.028" y="1.67" class="f">2.1.3</text></symbol><symbol id="14"><text x="2.004" y="1.67" class="f">semver</text><text x="10.02" y="1.67" class="f">7.5.4</text><text x="16.032" y="1.67" class="f">→</text><text x="18.036" y="1.67" class="f">7.8.5</text></symbol><symbol id="15"><text x="2.004" y="1.67" class="f">yaml</text><text x="8.016" y="1.67" class="f">2.3.4</text><text x="14.028" y="1.67" class="f">→</text><text x="16.032" y="1.67" class="f">2.9.1</text></symbol><symbol id="16"><text y="1.67" class="f">run</text><text x="4.008" y="1.67" class="f">1:</text><text x="7.014" y="1.67" class="g">PASS</text><text x="12.024" y="1.67" class="f">with</text><text x="17.034" y="1.67" class="f">(no</text><text x="21.042" y="1.67" class="f">updates)</text></symbol><symbol id="17"><text y="1.67" class="f">run</text><text x="4.008" y="1.67" class="f">2:</text><text x="7.014" y="1.67" class="h">FAIL</text><text x="12.024" y="1.67" class="f">with</text><text x="17.034" y="1.67" class="f">chalk,</text><text x="24.048" y="1.67" class="f">date-fns,</text><text x="34.068" y="1.67" class="f">dotenv,</text><text x="42.084" y="1.67" class="f">lodash,</text><text x="50.1" y="1.67" class="f">ms,</text><text x="54.108" y="1.67" class="f">semver,</text><text x="62.124" y="1.67" class="f">yaml</text></symbol><symbol id="18"><text y="1.67" class="f">run</text><text x="4.008" y="1.67" class="f">3:</text><text x="7.014" y="1.67" class="h">FAIL</text><text x="12.024" y="1.67" class="f">with</text><text x="17.034" y="1.67" class="f">chalk,</text><text x="24.048" y="1.67" class="f">date-fns,</text><text x="34.068" y="1.67" class="f">dotenv</text></symbol><symbol id="19"><text y="1.67" class="f">run</text><text x="4.008" y="1.67" class="f">4:</text><text x="7.014" y="1.67" class="h">FAIL</text><text x="12.024" y="1.67" class="f">with</text><text x="17.034" y="1.67" class="f">chalk</text></symbol><symbol id="20"><text y="1.67" class="f">run</text><text x="4.008" y="1.67" class="f">5:</text><text x="7.014" y="1.67" class="h">FAIL</text><text x="12.024" y="1.67" class="f">with</text><text x="17.034" y="1.67" class="f">date-fns,</text><text x="27.054" y="1.67" class="f">dotenv,</text><text x="35.07" y="1.67" class="f">lodash,</text><text x="43.086" y="1.67" class="f">ms,</text><text x="47.094" y="1.67" class="f">semver,</text><text x="55.11" y="1.67" class="f">yaml</text></symbol><symbol id="21"><text y="1.67" class="f">run</text><text x="4.008" y="1.67" class="f">6:</text><text x="7.014" y="1.67" class="h">FAIL</text><text x="12.024" y="1.67" class="f">with</text><text x="17.034" y="1.67" class="f">date-fns,</text><text x="27.054" y="1.67" class="f">dotenv,</text><text x="35.07" y="1.67" class="f">lodash</text></symbol><symbol id="22"><text y="1.67" class="f">run</text><text x="4.008" y="1.67" class="f">7:</text><text x="7.014" y="1.67" class="h">FAIL</text><text x="12.024" y="1.67" class="f">with</text><text x="17.034" y="1.67" class="f">date-fns</text></symbol><symbol id="23"><text y="1.67" class="f">run</text><text x="4.008" y="1.67" class="f">8:</text><text x="7.014" y="1.67" class="g">PASS</text><text x="12.024" y="1.67" class="f">with</text><text x="17.034" y="1.67" class="f">dotenv,</text><text x="25.05" y="1.67" class="f">lodash,</text><text x="33.066" y="1.67" class="f">ms,</text><text x="37.074" y="1.67" class="f">semver,</text><text x="45.09" y="1.67" class="f">yaml</text></symbol><symbol id="24"><text y="1.67" style="white-space:pre" fill="#e88388" font-weight="700">CULPRIT:</text></symbol><symbol id="25"><text x="2.004" y="1.67" class="j">chalk</text><text x="9.018" y="1.67" class="f">4.1.2</text><text x="15.03" y="1.67" class="f">→</text><text x="17.034" y="1.67" class="f">6.0.0</text></symbol><symbol id="26"><text x="2.004" y="1.67" class="f">│</text><text x="4.008" y="1.67" class="f">not</text><text x="8.016" y="1.67" class="f">ok</text><text x="11.022" y="1.67" class="f">2</text><text x="13.026" y="1.67" class="f">-</text><text x="15.03" y="1.67" class="f">renders</text><text x="23.046" y="1.67" class="f">a</text><text x="25.05" y="1.67" class="f">release</text></symbol><symbol id="27"><text x="2.004" y="1.67" class="f">│</text><text x="4.008" y="1.67" class="f">error:</text><text x="11.022" y="1.67" class="f">&apos;chalk.bold</text><text x="23.046" y="1.67" class="f">is</text><text x="26.052" y="1.67" class="f">not</text><text x="30.06" y="1.67" class="f">a</text><text x="32.064" y="1.67" class="f">function&apos;</text></symbol><symbol id="28"><text x="2.004" y="1.67" class="f">│</text><text x="4.008" y="1.67" class="f">name:</text><text x="10.02" y="1.67" class="f">&apos;TypeError&apos;</text></symbol><symbol id="29"><text x="2.004" y="1.67" class="j">date-fns</text><text x="12.024" y="1.67" class="f">2.30.0</text><text x="19.038" y="1.67" class="f">→</text><text x="21.042" y="1.67" class="f">4.4.0</text></symbol><symbol id="30"><text x="2.004" y="1.67" class="f">│</text><text x="4.008" y="1.67" class="f">error:</text><text x="11.022" y="1.67" class="f">&apos;format</text><text x="19.038" y="1.67" class="f">is</text><text x="22.044" y="1.67" class="f">not</text><text x="26.052" y="1.67" class="f">a</text><text x="28.056" y="1.67" class="f">function&apos;</text></symbol><symbol id="31"><text y="1.67" class="k">SAFE</text><text x="5.01" y="1.67" class="k">(5,</text><text x="9.018" y="1.67" class="k">verified</text><text x="18.036" y="1.67" class="k">together):</text></symbol><symbol id="32"><text x="2.004" y="1.67" class="j">dotenv</text><text x="10.02" y="1.67" class="f">16.3.1</text><text x="17.034" y="1.67" class="f">→</text><text x="19.038" y="1.67" class="f">16.6.1</text></symbol><symbol id="33"><text x="2.004" y="1.67" class="j">lodash</text><text x="10.02" y="1.67" class="f">4.17.20</text><text x="18.036" y="1.67" class="f">→</text><text x="20.04" y="1.67" class="f">4.18.1</text></symbol><symbol id="34"><text x="2.004" y="1.67" class="j">ms</text><text x="6.012" y="1.67" class="f">2.1.2</text><text x="12.024" y="1.67" class="f">→</text><text x="14.028" y="1.67" class="f">2.1.3</text></symbol><symbol id="35"><text x="2.004" y="1.67" class="j">semver</text><text x="10.02" y="1.67" class="f">7.5.4</text><text x="16.032" y="1.67" class="f">→</text><text x="18.036" y="1.67" class="f">7.8.5</text></symbol><symbol id="36"><text x="2.004" y="1.67" class="j">yaml</text><text x="8.016" y="1.67" class="f">2.3.4</text><text x="14.028" y="1.67" class="f">→</text><text x="16.032" y="1.67" class="f">2.9.1</text></symbol><symbol id="37"><text y="1.67" class="f">8</text><text x="2.004" y="1.67" class="f">runs</text><text x="7.014" y="1.67" class="f">in</text><text x="10.02" y="1.67" class="f">15s</text></symbol><symbol id="38"><text y="1.67" class="f">note:</text><text x="6.012" y="1.67" class="f">8</text><text x="8.016" y="1.67" class="f">transitive</text><text x="19.038" y="1.67" class="f">package(s)</text><text x="30.06" y="1.67" class="f">changed</text><text x="38.076" y="1.67" class="f">in</text><text x="41.082" y="1.67" class="f">package-lock.json</text><text x="59.118" y="1.67" class="f">as</text><text x="62.124" y="1.67" class="f">well.</text><text x="68.136" y="1.67" class="f">depsect</text><text x="76.152" y="1.67" class="f">bisects</text><text x="84.168" y="1.67" class="f">direct</text><text x="91.182" y="1.67" class="f">d</text></symbol><symbol id="39"><text y="1.67" class="f">ependencies</text><text x="12.024" y="1.67" class="f">and</text><text x="16.032" y="1.67" class="f">lets</text><text x="21.042" y="1.67" class="f">npm</text><text x="25.05" y="1.67" class="f">re-resolve</text><text x="36.072" y="1.67" class="f">their</text><text x="42.084" y="1.67" class="f">subtrees,</text><text x="52.104" y="1.67" class="f">so</text><text x="55.11" y="1.67" class="f">transitive-only</text><text x="71.142" y="1.67" class="f">changes</text><text x="79.158" y="1.67" class="f">are</text><text x="83.166" y="1.67" class="f">not</text><text x="87.174" y="1.67" class="f">teste</text></symbol><symbol id="40"><text y="1.67" class="f">d</text><text x="2.004" y="1.67" class="f">individually.</text></symbol><symbol id="a"><path fill="transparent" d="M0 0h92v44H0z"/></symbol><symbol id="b"><path fill="#6f7683" d="M0 0h1.102v2.171H0z"/></symbol></defs><path class="a" d="M0 0h92v95.524H0z"/><g style="animation-duration:12.04s;animation-iteration-count:infinite;animation-name:n;animation-timing-function:steps(1,end)"><svg width="5152"><svg><use xlink:href="#a"/><use xlink:href="#b" x="-.004"/></svg><svg x="92"><use xlink:href="#a"/><use xlink:href="#b" x=".996"/><use xlink:href="#1"/></svg><svg x="184"><use xlink:href="#a"/><use xlink:href="#b" x="1.996"/><use xlink:href="#1"/></svg><svg x="276"><use xlink:href="#a"/><use xlink:href="#b" x="2.996"/><text y="1.67" class="f">$</text><text x="2.004" y="1.67" class="f">d</text></svg><svg x="368"><use xlink:href="#a"/><use xlink:href="#b" x="3.996"/><text y="1.67" class="f">$</text><text x="2.004" y="1.67" class="f">de</text></svg><svg x="460"><use xlink:href="#a"/><use xlink:href="#b" x="4.996"/><text y="1.67" class="f">$</text><text x="2.004" y="1.67" class="f">dep</text></svg><svg x="552"><use xlink:href="#a"/><use xlink:href="#b" x="5.996"/><text y="1.67" class="f">$</text><text x="2.004" y="1.67" class="f">deps</text></svg><svg x="644"><use xlink:href="#a"/><use xlink:href="#b" x="6.996"/><text y="1.67" class="f">$</text><text x="2.004" y="1.67" class="f">depse</text></svg><svg x="736"><use xlink:href="#a"/><use xlink:href="#b" x="7.996"/><text y="1.67" class="f">$</text><text x="2.004" y="1.67" class="f">depsec</text></svg><svg x="828"><use xlink:href="#a"/><use xlink:href="#b" x="8.996"/><use xlink:href="#2"/></svg><svg x="920"><use xlink:href="#a"/><use xlink:href="#b" x="9.996"/><use xlink:href="#2"/></svg><svg x="1012"><use xlink:href="#a"/><use xlink:href="#b" x="10.996"/><text y="1.67" class="f">$</text><text x="2.004" y="1.67" class="f">depsect</text><text x="10.02" y="1.67" class="f">-</text></svg><svg x="1104"><use xlink:href="#a"/><use xlink:href="#b" x="11.996"/><text y="1.67" class="f">$</text><text x="2.004" y="1.67" class="f">depsect</text><text x="10.02" y="1.67" class="f">--</text></svg><svg x="1196"><use xlink:href="#a"/><use xlink:href="#b" x="12.996"/><text y="1.67" class="f">$</text><text x="2.004" y="1.67" class="f">depsect</text><text x="10.02" y="1.67" class="f">--b</text></svg><svg x="1288"><use xlink:href="#a"/><use xlink:href="#b" x="13.996"/><text y="1.67" class="f">$</text><text x="2.004" y="1.67" class="f">depsect</text><text x="10.02" y="1.67" class="f">--ba</text></svg><svg x="1380"><use xlink:href="#a"/><use xlink:href="#b" x="14.996"/><text y="1.67" class="f">$</text><text x="2.004" y="1.67" class="f">depsect</text><text x="10.02" y="1.67" class="f">--bas</text></svg><svg x="1472"><use xlink:href="#a"/><use xlink:href="#b" x="15.996"/><use xlink:href="#3"/></svg><svg x="1564"><use xlink:href="#a"/><use xlink:href="#b" x="16.996"/><use xlink:href="#3"/></svg><svg x="1656"><use xlink:href="#a"/><use xlink:href="#b" x="17.996"/><text y="1.67" class="f">$</text><text x="2.004" y="1.67" class="f">depsect</text><text x="10.02" y="1.67" class="f">--base</text><text x="17.034" y="1.67" class="f">m</text></svg><svg x="1748"><use xlink:href="#a"/><use xlink:href="#b" x="18.996"/><text y="1.67" class="f">$</text><text x="2.004" y="1.67" class="f">depsect</text><text x="10.02" y="1.67" class="f">--base</text><text x="17.034" y="1.67" class="f">ma</text></svg><svg x="1840"><use xlink:href="#a"/><use xlink:href="#b" x="19.996"/><text y="1.67" class="f">$</text><text x="2.004" y="1.67" class="f">depsect</text><text x="10.02" y="1.67" class="f">--base</text><text x="17.034" y="1.67" class="f">mai</text></svg><svg x="1932"><use xlink:href="#a"/><use xlink:href="#b" x="20.996"/><use xlink:href="#4"/></svg><svg x="2024"><use xlink:href="#a"/><use xlink:href="#b" x="21.996"/><use xlink:href="#4"/></svg><svg x="2116"><use xlink:href="#a"/><use xlink:href="#b" x="22.996"/><text y="1.67" class="f">$</text><text x="2.004" y="1.67" class="f">depsect</text><text x="10.02" y="1.67" class="f">--base</text><text x="17.034" y="1.67" class="f">main</text><text x="22.044" y="1.67" class="f">-</text></svg><svg x="2208"><use xlink:href="#a"/><use xlink:href="#b" x="23.996"/><text y="1.67" class="f">$</text><text x="2.004" y="1.67" class="f">depsect</text><text x="10.02" y="1.67" class="f">--base</text><text x="17.034" y="1.67" class="f">main</text><text x="22.044" y="1.67" class="f">--</text></svg><svg x="2300"><use xlink:href="#a"/><use xlink:href="#b" x="24.996"/><text y="1.67" class="f">$</text><text x="2.004" y="1.67" class="f">depsect</text><text x="10.02" y="1.67" class="f">--base</text><text x="17.034" y="1.67" class="f">main</text><text x="22.044" y="1.67" class="f">--t</text></svg><svg x="2392"><use xlink:href="#a"/><use xlink:href="#b" x="25.996"/><text y="1.67" class="f">$</text><text x="2.004" y="1.67" class="f">depsect</text><text x="10.02" y="1.67" class="f">--base</text><text x="17.034" y="1.67" class="f">main</text><text x="22.044" y="1.67" class="f">--te</text></svg><svg x="2484"><use xlink:href="#a"/><use xlink:href="#b" x="26.996"/><text y="1.67" class="f">$</text><text x="2.004" y="1.67" class="f">depsect</text><text x="10.02" y="1.67" class="f">--base</text><text x="17.034" y="1.67" class="f">main</text><text x="22.044" y="1.67" class="f">--tes</text></svg><svg x="2576"><use xlink:href="#a"/><use xlink:href="#b" x="27.996"/><use xlink:href="#5"/></svg><svg x="2668"><use xlink:href="#a"/><use xlink:href="#b" x="28.996"/><use xlink:href="#5"/></svg><svg x="2760"><use xlink:href="#a"/><use xlink:href="#b" x="29.996"/><text y="1.67" class="f">$</text><text x="2.004" y="1.67" class="f">depsect</text><text x="10.02" y="1.67" class="f">--base</text><text x="17.034" y="1.67" class="f">main</text><text x="22.044" y="1.67" class="f">--test</text><text x="29.058" y="1.67" class="f">&quot;</text></svg><svg x="2852"><use xlink:href="#a"/><use xlink:href="#b" x="30.996"/><text y="1.67" class="f">$</text><text x="2.004" y="1.67" class="f">depsect</text><text x="10.02" y="1.67" class="f">--base</text><text x="17.034" y="1.67" class="f">main</text><text x="22.044" y="1.67" class="f">--test</text><text x="29.058" y="1.67" class="f">&quot;n</text></svg><svg x="2944"><use xlink:href="#a"/><use xlink:href="#b" x="31.996"/><text y="1.67" class="f">$</text><text x="2.004" y="1.67" class="f">depsect</text><text x="10.02" y="1.67" class="f">--base</text><text x="17.034" y="1.67" class="f">main</text><text x="22.044" y="1.67" class="f">--test</text><text x="29.058" y="1.67" class="f">&quot;np</text></svg><svg x="3036"><use xlink:href="#a"/><use xlink:href="#b" x="32.996"/><use xlink:href="#6"/></svg><svg x="3128"><use xlink:href="#a"/><use xlink:href="#b" x="33.996"/><use xlink:href="#6"/></svg><svg x="3220"><use xlink:href="#a"/><use xlink:href="#b" x="34.996"/><text y="1.67" class="f">$</text><text x="2.004" y="1.67" class="f">depsect</text><text x="10.02" y="1.67" class="f">--base</text><text x="17.034" y="1.67" class="f">main</text><text x="22.044" y="1.67" class="f">--test</text><text x="29.058" y="1.67" class="f">&quot;npm</text><text x="34.068" y="1.67" class="f">t</text></svg><svg x="3312"><use xlink:href="#a"/><use xlink:href="#b" x="35.996"/><text y="1.67" class="f">$</text><text x="2.004" y="1.67" class="f">depsect</text><text x="10.02" y="1.67" class="f">--base</text><text x="17.034" y="1.67" class="f">main</text><text x="22.044" y="1.67" class="f">--test</text><text x="29.058" y="1.67" class="f">&quot;npm</text><text x="34.068" y="1.67" class="f">te</text></svg><svg x="3404"><use xlink:href="#a"/><use xlink:href="#b" x="36.996"/><text y="1.67" class="f">$</text><text x="2.004" y="1.67" class="f">depsect</text><text x="10.02" y="1.67" class="f">--base</text><text x="17.034" y="1.67" class="f">main</text><text x="22.044" y="1.67" class="f">--test</text><text x="29.058" y="1.67" class="f">&quot;npm</text><text x="34.068" y="1.67" class="f">tes</text></svg><svg x="3496"><use xlink:href="#a"/><use xlink:href="#b" x="37.996"/><text y="1.67" class="f">$</text><text x="2.004" y="1.67" class="f">depsect</text><text x="10.02" y="1.67" class="f">--base</text><text x="17.034" y="1.67" class="f">main</text><text x="22.044" y="1.67" class="f">--test</text><text x="29.058" y="1.67" class="f">&quot;npm</text><text x="34.068" y="1.67" class="f">test</text></svg><svg x="3588"><use xlink:href="#a"/><use xlink:href="#b" x="38.996"/><use xlink:href="#7"/></svg><svg x="3680"><use xlink:href="#a"/><use xlink:href="#b" x="-.004" y="2.146"/><use xlink:href="#7"/></svg><svg x="3772"><use xlink:href="#a"/><use xlink:href="#b" x="-.004" y="2.146"/><use xlink:href="#7"/><text y="3.841" class="f">^D</text></svg><svg x="3864"><use xlink:href="#a"/><use xlink:href="#b" x="-.004" y="4.317"/><use xlink:href="#7"/><use xlink:href="#8" y="2.171"/></svg><svg x="3956"><use xlink:href="#a"/><use xlink:href="#b" x="-.004" y="8.659"/><use xlink:href="#7"/><use xlink:href="#8" y="2.171"/><use xlink:href="#9" y="4.342"/><use xlink:href="#10" y="6.513"/></svg><svg x="4048"><use xlink:href="#a"/><use xlink:href="#b" x="-.004" y="17.343"/><use xlink:href="#7"/><use xlink:href="#8" y="2.171"/><use xlink:href="#9" y="4.342"/><use xlink:href="#10" y="6.513"/><use xlink:href="#11" y="8.684"/><use xlink:href="#12" y="10.855"/><use xlink:href="#13" y="13.026"/><use xlink:href="#14" y="15.197"/></svg><svg x="4140"><use xlink:href="#a"/><use xlink:href="#b" x="-.004" y="19.514"/><use xlink:href="#7"/><use xlink:href="#8" y="2.171"/><use xlink:href="#9" y="4.342"/><use xlink:href="#10" y="6.513"/><use xlink:href="#11" y="8.684"/><use xlink:href="#12" y="10.855"/><use xlink:href="#13" y="13.026"/><use xlink:href="#14" y="15.197"/><use xlink:href="#15" y="17.368"/></svg><svg x="4232"><use xlink:href="#a"/><use xlink:href="#b" x="-.004" y="21.685"/><use xlink:href="#7"/><use xlink:href="#8" y="2.171"/><use xlink:href="#9" y="4.342"/><use xlink:href="#10" y="6.513"/><use xlink:href="#11" y="8.684"/><use xlink:href="#12" y="10.855"/><use xlink:href="#13" y="13.026"/><use xlink:href="#14" y="15.197"/><use xlink:href="#15" y="17.368"/><use xlink:href="#16" y="19.539"/></svg><svg x="4324"><use xlink:href="#a"/><use xlink:href="#b" x="-.004" y="23.856"/><use xlink:href="#7"/><use xlink:href="#8" y="2.171"/><use xlink:href="#9" y="4.342"/><use xlink:href="#10" y="6.513"/><use xlink:href="#11" y="8.684"/><use xlink:href="#12" y="10.855"/><use xlink:href="#13" y="13.026"/><use xlink:href="#14" y="15.197"/><use xlink:href="#15" y="17.368"/><use xlink:href="#16" y="19.539"/><use xlink:href="#17" y="21.71"/></svg><svg x="4416"><use xlink:href="#a"/><use xlink:href="#b" x="-.004" y="26.027"/><use xlink:href="#7"/><use xlink:href="#8" y="2.171"/><use xlink:href="#9" y="4.342"/><use xlink:href="#10" y="6.513"/><use xlink:href="#11" y="8.684"/><use xlink:href="#12" y="10.855"/><use xlink:href="#13" y="13.026"/><use xlink:href="#14" y="15.197"/><use xlink:href="#15" y="17.368"/><use xlink:href="#16" y="19.539"/><use xlink:href="#17" y="21.71"/><use xlink:href="#18" y="23.881"/></svg><svg x="4508"><use xlink:href="#a"/><use xlink:href="#b" x="-.004" y="28.198"/><use xlink:href="#7"/><use xlink:href="#8" y="2.171"/><use xlink:href="#9" y="4.342"/><use xlink:href="#10" y="6.513"/><use xlink:href="#11" y="8.684"/><use xlink:href="#12" y="10.855"/><use xlink:href="#13" y="13.026"/><use xlink:href="#14" y="15.197"/><use xlink:href="#15" y="17.368"/><use xlink:href="#16" y="19.539"/><use xlink:href="#17" y="21.71"/><use xlink:href="#18" y="23.881"/><use xlink:href="#19" y="26.052"/></svg><svg x="4600"><use xlink:href="#a"/><use xlink:href="#b" x="-.004" y="30.369"/><use xlink:href="#7"/><use xlink:href="#8" y="2.171"/><use xlink:href="#9" y="4.342"/><use xlink:href="#10" y="6.513"/><use xlink:href="#11" y="8.684"/><use xlink:href="#12" y="10.855"/><use xlink:href="#13" y="13.026"/><use xlink:href="#14" y="15.197"/><use xlink:href="#15" y="17.368"/><use xlink:href="#16" y="19.539"/><use xlink:href="#17" y="21.71"/><use xlink:href="#18" y="23.881"/><use xlink:href="#19" y="26.052"/><use xlink:href="#20" y="28.223"/></svg><svg x="4692"><use xlink:href="#a"/><use xlink:href="#b" x="-.004" y="32.54"/><use xlink:href="#7"/><use xlink:href="#8" y="2.171"/><use xlink:href="#9" y="4.342"/><use xlink:href="#10" y="6.513"/><use xlink:href="#11" y="8.684"/><use xlink:href="#12" y="10.855"/><use xlink:href="#13" y="13.026"/><use xlink:href="#14" y="15.197"/><use xlink:href="#15" y="17.368"/><use xlink:href="#16" y="19.539"/><use xlink:href="#17" y="21.71"/><use xlink:href="#18" y="23.881"/><use xlink:href="#19" y="26.052"/><use xlink:href="#20" y="28.223"/><use xlink:href="#21" y="30.394"/></svg><svg x="4784"><use xlink:href="#a"/><use xlink:href="#b" x="-.004" y="34.711"/><use xlink:href="#7"/><use xlink:href="#8" y="2.171"/><use xlink:href="#9" y="4.342"/><use xlink:href="#10" y="6.513"/><use xlink:href="#11" y="8.684"/><use xlink:href="#12" y="10.855"/><use xlink:href="#13" y="13.026"/><use xlink:href="#14" y="15.197"/><use xlink:href="#15" y="17.368"/><use xlink:href="#16" y="19.539"/><use xlink:href="#17" y="21.71"/><use xlink:href="#18" y="23.881"/><use xlink:href="#19" y="26.052"/><use xlink:href="#20" y="28.223"/><use xlink:href="#21" y="30.394"/><use xlink:href="#22" y="32.565"/></svg><svg x="4876"><use xlink:href="#a"/><use xlink:href="#b" x="-.004" y="36.882"/><use xlink:href="#7"/><use xlink:href="#8" y="2.171"/><use xlink:href="#9" y="4.342"/><use xlink:href="#10" y="6.513"/><use xlink:href="#11" y="8.684"/><use xlink:href="#12" y="10.855"/><use xlink:href="#13" y="13.026"/><use xlink:href="#14" y="15.197"/><use xlink:href="#15" y="17.368"/><use xlink:href="#16" y="19.539"/><use xlink:href="#17" y="21.71"/><use xlink:href="#18" y="23.881"/><use xlink:href="#19" y="26.052"/><use xlink:href="#20" y="28.223"/><use xlink:href="#21" y="30.394"/><use xlink:href="#22" y="32.565"/><use xlink:href="#23" y="34.736"/></svg><svg x="4968"><use xlink:href="#a"/><use xlink:href="#b" x="-.004" y="91.157"/><use xlink:href="#7"/><use xlink:href="#8" y="2.171"/><use xlink:href="#9" y="4.342"/><use xlink:href="#10" y="6.513"/><use xlink:href="#11" y="8.684"/><use xlink:href="#12" y="10.855"/><use xlink:href="#13" y="13.026"/><use xlink:href="#14" y="15.197"/><use xlink:href="#15" y="17.368"/><use xlink:href="#16" y="19.539"/><use xlink:href="#17" y="21.71"/><use xlink:href="#18" y="23.881"/><use xlink:href="#19" y="26.052"/><use xlink:href="#20" y="28.223"/><use xlink:href="#21" y="30.394"/><use xlink:href="#22" y="32.565"/><use xlink:href="#23" y="34.736"/><use xlink:href="#24" y="39.078"/><use xlink:href="#25" y="41.249"/><use xlink:href="#26" y="43.42"/><use xlink:href="#27" y="45.591"/><use xlink:href="#28" y="47.762"/><use xlink:href="#24" y="52.104"/><use xlink:href="#29" y="54.275"/><use xlink:href="#26" y="56.446"/><use xlink:href="#30" y="58.617"/><use xlink:href="#28" y="60.788"/><use xlink:href="#31" y="65.13"/><use xlink:href="#32" y="67.301"/><use xlink:href="#33" y="69.472"/><use xlink:href="#34" y="71.643"/><use xlink:href="#35" y="73.814"/><use xlink:href="#36" y="75.985"/><use xlink:href="#37" y="80.327"/><use xlink:href="#38" y="84.669"/><use xlink:href="#39" y="86.84"/><use xlink:href="#40" y="89.011"/></svg><svg x="5060"><use xlink:href="#a"/><use xlink:href="#b" x="-.004" y="91.157"/><use xlink:href="#7"/><use xlink:href="#8" y="2.171"/><use xlink:href="#9" y="4.342"/><use xlink:href="#10" y="6.513"/><use xlink:href="#11" y="8.684"/><use xlink:href="#12" y="10.855"/><use xlink:href="#13" y="13.026"/><use xlink:href="#14" y="15.197"/><use xlink:href="#15" y="17.368"/><use xlink:href="#16" y="19.539"/><use xlink:href="#17" y="21.71"/><use xlink:href="#18" y="23.881"/><use xlink:href="#19" y="26.052"/><use xlink:href="#20" y="28.223"/><use xlink:href="#21" y="30.394"/><use xlink:href="#22" y="32.565"/><use xlink:href="#23" y="34.736"/><use xlink:href="#24" y="39.078"/><use xlink:href="#25" y="41.249"/><use xlink:href="#26" y="43.42"/><use xlink:href="#27" y="45.591"/><use xlink:href="#28" y="47.762"/><use xlink:href="#24" y="52.104"/><use xlink:href="#29" y="54.275"/><use xlink:href="#26" y="56.446"/><use xlink:href="#30" y="58.617"/><use xlink:href="#28" y="60.788"/><use xlink:href="#31" y="65.13"/><use xlink:href="#32" y="67.301"/><use xlink:href="#33" y="69.472"/><use xlink:href="#34" y="71.643"/><use xlink:href="#35" y="73.814"/><use xlink:href="#36" y="75.985"/><use xlink:href="#37" y="80.327"/><use xlink:href="#38" y="84.669"/><use xlink:href="#39" y="86.84"/><use xlink:href="#40" y="89.011"/></svg></svg></g></g></svg></svg>